<svg version="1.0" xmlns="http://www.w3.org/2000/svg"
 width="45.000000pt" height="45.000000pt" viewBox="0 0 45.000000 45.000000"
 preserveAspectRatio="xMidYMid meet">

<g transform="translate(0.000000,45.000000) scale(0.100000,-0.100000)"
fill="#cdb32f" stroke="none">
<path d="M240 443 c0 -6 18 -15 41 -22 53 -16 124 -87 140 -140 14 -46 33 -57
23 -13 -11 51 -59 116 -104 144 -50 30 -100 45 -100 31z"/>
<path d="M30 383 c-28 -32 -31 -41 -26 -76 21 -127 177 -282 304 -303 38 -6
44 -4 77 29 19 19 35 44 35 54 0 24 -70 93 -95 93 -10 0 -29 -10 -42 -21 l-22
-22 -36 24 c-19 13 -47 41 -62 62 l-26 37 21 23 c12 13 22 32 22 43 0 26 -70
94 -97 94 -12 0 -35 -16 -53 -37z m97 -15 c38 -37 40 -48 13 -73 -32 -29 -24
-53 39 -116 63 -63 87 -71 116 -39 10 11 23 20 29 20 13 0 76 -61 76 -74 0
-21 -54 -66 -79 -66 -106 0 -301 195 -301 299 0 25 44 81 64 81 5 0 25 -14 43
-32z"/>
<path d="M243 354 c3 -3 20 -13 39 -22 19 -10 41 -33 51 -54 21 -44 41 -51 26
-10 -12 34 -27 53 -59 75 -22 15 -71 25 -57 11z"/>
</g>
</svg>
